<svg xmlns="http://www.w3.org/2000/svg" xmlns:xlink="http://www.w3.org/1999/xlink" width="1080" zoomAndPan="magnify" viewBox="0 0 810 809.999993" height="1080" preserveAspectRatio="xMidYMid meet" version="1.0"><defs><g/></defs><path stroke-linecap="butt" transform="matrix(1.364302, 0, 0, 1.364302, -4.782006, 190.407697)" fill="none" stroke-linejoin="miter" d="M 63.428693 124.57326 C 87.502353 128.338348 117.394006 126.228181 128.176761 100.556863 C 133.08426 88.63456 132.568887 74.143981 127.206141 62.676924 C 120.932902 48.870646 108.55249 43.5079 97.769735 34.151011 C 69.01763 9.848296 99.195601 -13.254744 124.411672 -21.185767 C 138.673197 -25.861348 133.768561 -41.093493 124.182618 -47.14054 C 112.718424 -54.387261 96.401133 -53.018659 83.963457 -49.25357 C 58.521194 -42.006849 39.125978 -21.185767 35.41529 5.398907 C 31.650202 32.327162 43.346313 51.438923 66.907463 62.903116 C 75.577187 67.126314 90.981123 75.283528 83.50821 87.434886 C 74.666695 102.15452 57.378783 87.663941 45.91459 87.663941 C 32.337366 87.434886 22.296176 98.446696 31.194955 111.282354 C 37.697249 120.63638 52.929393 122.749411 63.428693 124.57326 Z M 147.75522 124.57326 C 156.198753 127.141537 166.69519 126.457235 172.28699 119.439569 C 178.388438 111.966656 176.507325 93.539196 183.295937 87.892995 C 187.061025 85.095664 219.750009 87.663941 220.889557 88.63456 C 227.222922 93.997306 228.422597 108.943132 233.040915 115.731744 C 239.603335 125.314824 248.273059 125.772934 257.34363 118.526213 C 266.471464 111.0533 265.560971 103.351332 261.795882 93.026686 L 234.469644 16.181662 C 227.907224 -2.529253 223.457834 -31.281358 198.926064 -30.768847 C 177.191626 -30.084546 166.466135 -17.019833 160.135633 2.149192 C 152.659856 24.796986 145.702317 47.731098 140.053252 70.834139 C 135.832918 88.119187 123.738824 117.612857 147.75522 124.57326 Z M 194.021428 54.745902 C 196.131596 47.731098 198.470818 40.713431 200.580985 33.695765 C 202.464961 40.02913 204.575128 46.076177 206.685296 52.406679 C 202.464961 53.090981 198.241763 54.004337 194.021428 54.745902 Z M 300.119615 124.57326 C 324.193275 128.338348 354.087791 126.228181 364.870546 100.556863 C 369.775182 88.63456 369.262672 74.143981 363.899926 62.676924 C 357.623824 48.870646 345.246275 43.5079 334.46352 34.151011 C 305.711415 9.848296 335.889386 -13.254744 361.105457 -21.185767 C 375.366982 -25.861348 370.459483 -41.093493 360.876402 -47.14054 C 349.409346 -54.387261 333.094918 -53.018659 320.657241 -49.25357 C 295.214979 -42.006849 275.8169 -21.185767 272.109075 5.398907 C 268.343987 32.327162 280.040098 51.438923 303.601248 62.903116 C 312.270972 67.126314 327.674908 75.283528 320.201995 87.434886 C 311.357616 102.15452 294.072568 87.663941 282.605512 87.663941 C 269.028288 87.434886 258.987098 98.446696 267.88874 111.282354 C 274.391034 120.63638 289.623178 122.749411 300.119615 124.57326 Z M 405.499142 124.57326 C 429.572802 128.338348 459.467318 126.228181 470.24721 100.556863 C 475.154709 88.63456 474.642199 74.143981 469.279453 62.676924 C 463.003351 48.870646 450.622939 43.5079 439.840184 34.151011 C 411.088079 9.848296 441.268913 -13.254744 466.482121 -21.185767 C 480.746509 -25.861348 475.83901 -41.093493 466.25593 -47.14054 C 454.788873 -54.387261 438.471582 -53.018659 426.036769 -49.25357 C 400.591643 -42.006849 381.196427 -21.185767 377.488602 5.398907 C 373.723514 32.327162 385.416762 51.438923 408.977912 62.903116 C 417.6505 67.126314 433.051572 75.283528 425.578659 87.434886 C 416.737144 102.15452 399.452095 87.663941 387.985039 87.663941 C 374.407815 87.434886 364.366625 98.446696 373.265404 111.282354 C 379.770561 120.63638 395.002706 122.749411 405.499142 124.57326 Z M 538.202045 119.439569 C 550.811512 107.288211 549.442909 88.405505 547.558933 64.558037 C 545.674958 49.612211 546.190331 45.847122 554.5766 33.695765 C 559.939346 25.764742 565.302091 17.550264 569.522426 8.708749 C 573.971816 -0.874332 582.358085 -20.727657 568.838125 -27.061023 C 547.787988 -37.102213 535.407576 0.0361609 527.476553 13.158138 C 520.687941 -1.561496 518.351582 -23.295934 502.206082 -31.281358 C 483.323376 -40.580983 471.85632 -24.492746 476.305709 -7.207697 C 480.984154 11.961327 498.269202 27.136208 500.608424 45.847122 C 502.718592 64.787092 493.819812 98.901942 504.828759 115.731744 C 513.673138 129.022649 532.384052 130.222324 538.202045 119.439569 Z M 538.202045 119.439569 " stroke="#ffffff" stroke-width="18.69384" stroke-opacity="1" stroke-miterlimit="4"/><path stroke-linecap="butt" transform="matrix(1.364302, 0, 0, 1.364302, -4.782006, 190.407697)" fill="none" stroke-linejoin="miter" d="M 71.039039 312.544224 C 90.889501 310.434056 112.168693 303.871636 124.32005 287.041834 C 137.155709 269.072485 137.384764 238.436404 120.784017 222.577222 C 134.81935 210.199673 147.655009 188.007125 139.953041 168.838101 C 130.882471 145.677797 101.672256 145.448742 80.851174 146.133043 C 65.218184 146.419362 38.063736 142.880465 28.480656 158.284401 C 20.778688 171.177323 24.314722 190.575402 24.772831 204.836927 C 25.457132 231.705056 22.204554 262.283873 28.480656 288.470564 C 33.385292 310.205002 50.956659 314.654391 71.039039 312.544224 Z M 60.997849 205.750283 C 59.798174 204.836927 60.539739 191.030649 60.997849 190.117293 C 64.934728 180.989459 101.159746 186.123149 94.428398 197.590206 C 90.66331 203.866307 81.535476 204.836927 75.030319 205.521228 C 73.604453 205.750283 62.366451 206.889831 60.997849 205.750283 Z M 59.571983 277.745072 C 59.798174 271.182652 57.003706 256.007771 59.798174 250.816816 C 62.366451 246.195636 66.586786 245.91218 73.604453 245.683126 C 82.732287 245.454071 96.026055 247.793293 93.002532 260.173705 C 89.749954 273.521874 70.809984 276.545398 59.571983 277.745072 Z M 177.583883 312.544224 C 192.074462 311.859923 206.565042 312.086114 220.826567 311.344549 C 232.74887 310.660248 241.590385 309.005327 246.26883 297.369343 C 249.066162 289.610111 250.718219 275.632042 243.019115 269.756786 C 234.346527 263.480684 220.826567 266.278016 211.014432 265.819906 C 202.115652 265.307396 179.238804 258.063538 192.529709 245.683126 C 200.460731 238.210213 212.838281 247.108992 222.195169 244.540715 C 232.462551 241.517191 234.801773 229.823943 233.662226 220.238 C 232.977925 212.080785 230.180593 207.402341 222.195169 204.321554 C 214.493202 201.527085 198.347701 206.660776 192.300654 202.211386 C 184.14344 196.393394 191.616353 185.438848 197.437208 184.242037 C 206.335987 182.131869 215.919068 188.23618 225.275957 184.471092 C 233.433171 181.218513 237.656369 173.516545 236.456694 164.617766 C 234.801773 152.237354 224.534392 150.127186 213.8089 148.472265 C 197.892454 146.133043 155.849445 138.204884 148.831778 157.829154 C 145.808254 166.272687 147.463175 177.965935 146.947802 186.581259 C 146.492556 202.211386 145.808254 217.901641 145.123953 233.531768 C 144.382388 246.879937 143.924279 260.173705 143.239977 273.521874 C 142.784731 284.018311 139.703944 299.193192 148.147477 307.410533 C 155.849445 314.883446 168.226994 312.770415 177.583883 312.544224 Z M 335.525762 309.234382 C 350.700643 300.848113 351.213153 277.229699 336.951628 267.646618 C 326.681383 260.91527 315.901491 263.254492 304.434435 261.144325 C 295.819111 259.489404 297.474032 263.480684 296.048166 253.668549 C 295.363864 248.534858 296.732467 242.430547 296.961522 237.296856 C 297.703087 216.472911 301.181857 190.801594 294.393245 170.435758 C 289.030499 153.892275 271.745451 147.787964 259.594093 162.049489 C 248.127037 175.626713 249.097657 199.187863 249.097657 215.562418 C 248.868602 234.957634 247.897982 256.007771 249.781958 275.40585 C 251.892125 296.85397 265.64114 305.755612 286.006976 309.005327 C 300.042309 311.344549 322.461048 316.481103 335.525762 309.234382 Z M 434.12813 309.234382 C 449.303011 300.848113 449.815521 277.229699 435.553996 267.646618 C 425.283751 260.91527 414.503859 263.254492 403.036803 261.144325 C 394.421479 259.489404 396.0764 263.480684 394.650534 253.668549 C 393.966232 248.534858 395.334835 242.430547 395.56389 237.296856 C 396.305455 216.472911 399.784225 190.801594 392.995613 170.435758 C 387.632867 153.892275 370.347819 147.787964 358.196461 162.049489 C 346.729405 175.626713 347.700025 199.187863 347.700025 215.562418 C 347.47097 234.957634 346.50035 256.007771 348.384326 275.40585 C 350.494493 296.85397 364.243508 305.755612 384.609344 309.005327 C 398.644677 311.344549 421.063416 316.481103 434.12813 309.234382 Z M 460.277599 311.573604 C 468.721132 314.141881 479.217569 313.45758 484.809369 306.439913 C 490.91368 298.967 489.029704 280.539541 495.821179 274.890477 C 499.586267 272.096008 532.272388 274.664285 533.414799 275.632042 C 539.748164 280.994787 540.944976 295.943477 545.566157 302.732088 C 552.125714 312.315169 560.798301 312.770415 569.868872 305.526557 C 578.996706 298.053644 578.08335 290.351676 574.318261 280.027031 L 546.992023 203.182006 C 540.432466 184.471092 535.983076 155.718987 511.451306 156.231497 C 489.716868 156.915798 478.991377 169.980512 472.658011 189.146673 C 465.185098 211.79733 458.224695 234.728579 452.578494 257.834483 C 448.355296 275.119532 436.261203 304.613201 460.277599 311.573604 Z M 506.543807 241.746246 C 508.656838 234.728579 510.99606 227.713776 513.106227 220.696109 C 514.98734 227.029475 517.097507 233.076522 519.210538 239.407024 C 514.98734 240.091325 510.767005 241.004681 506.543807 241.746246 Z M 506.543807 241.746246 " stroke="#ffffff" stroke-width="18.69384" stroke-opacity="1" stroke-miterlimit="4"/><g fill="#ffbd59" fill-opacity="1"><g transform="translate(28.515497, 362.309787)"><g><path d="M 53.238281 -1.914062 C 86.074219 3.1875 126.882812 0.320312 141.546875 -34.75 C 148.242188 -51.007812 147.601562 -70.773438 140.269531 -86.394531 C 131.664062 -105.203125 114.765625 -112.535156 100.101562 -125.285156 C 60.890625 -158.441406 102.015625 -190.003906 136.445312 -200.84375 C 155.890625 -207.21875 149.195312 -227.941406 136.125 -236.226562 C 120.503906 -246.109375 98.1875 -244.199219 81.292969 -239.097656 C 46.542969 -229.214844 20.085938 -200.84375 14.984375 -164.5 C 9.882812 -127.835938 25.824219 -101.695312 58.019531 -86.074219 C 69.816406 -80.335938 90.855469 -69.179688 80.65625 -52.601562 C 68.542969 -32.515625 44.949219 -52.28125 29.328125 -52.28125 C 10.839844 -52.601562 -2.871094 -37.617188 9.246094 -20.085938 C 18.171875 -7.332031 38.894531 -4.464844 53.238281 -1.914062 Z M 53.238281 -1.914062 "/></g></g></g><g fill="#ffbd59" fill-opacity="1"><g transform="translate(172.283515, 362.309787)"><g><path d="M 24.546875 -1.914062 C 36.023438 1.59375 50.371094 0.636719 58.019531 -8.925781 C 66.308594 -19.128906 63.757812 -44.3125 73.003906 -51.964844 C 78.105469 -55.789062 122.738281 -52.28125 124.332031 -51.007812 C 132.9375 -43.675781 134.53125 -23.273438 140.90625 -14.027344 C 149.835938 -0.957031 161.628906 -0.320312 174.0625 -10.203125 C 186.496094 -20.402344 185.222656 -30.921875 180.121094 -44.949219 L 142.820312 -149.835938 C 133.894531 -175.339844 127.835938 -214.550781 94.363281 -213.914062 C 64.714844 -212.957031 50.050781 -195.101562 41.445312 -168.960938 C 31.242188 -138.039062 21.679688 -106.796875 14.027344 -75.234375 C 8.289062 -51.644531 -8.289062 -11.476562 24.546875 -1.914062 Z M 87.667969 -97.234375 C 90.539062 -106.796875 93.726562 -116.359375 96.59375 -125.925781 C 99.144531 -117.316406 102.015625 -109.027344 104.882812 -100.421875 C 99.144531 -99.464844 93.40625 -98.1875 87.667969 -97.234375 Z M 87.667969 -97.234375 "/></g></g></g><g fill="#ffbd59" fill-opacity="1"><g transform="translate(351.435855, 362.309787)"><g><path d="M 53.238281 -1.914062 C 86.074219 3.1875 126.882812 0.320312 141.546875 -34.75 C 148.242188 -51.007812 147.601562 -70.773438 140.269531 -86.394531 C 131.664062 -105.203125 114.765625 -112.535156 100.101562 -125.285156 C 60.890625 -158.441406 102.015625 -190.003906 136.445312 -200.84375 C 155.890625 -207.21875 149.195312 -227.941406 136.125 -236.226562 C 120.503906 -246.109375 98.1875 -244.199219 81.292969 -239.097656 C 46.542969 -229.214844 20.085938 -200.84375 14.984375 -164.5 C 9.882812 -127.835938 25.824219 -101.695312 58.019531 -86.074219 C 69.816406 -80.335938 90.855469 -69.179688 80.65625 -52.601562 C 68.542969 -32.515625 44.949219 -52.28125 29.328125 -52.28125 C 10.839844 -52.601562 -2.871094 -37.617188 9.246094 -20.085938 C 18.171875 -7.332031 38.894531 -4.464844 53.238281 -1.914062 Z M 53.238281 -1.914062 "/></g></g></g><g fill="#ffbd59" fill-opacity="1"><g transform="translate(495.203894, 362.309787)"><g><path d="M 53.238281 -1.914062 C 86.074219 3.1875 126.882812 0.320312 141.546875 -34.75 C 148.242188 -51.007812 147.601562 -70.773438 140.269531 -86.394531 C 131.664062 -105.203125 114.765625 -112.535156 100.101562 -125.285156 C 60.890625 -158.441406 102.015625 -190.003906 136.445312 -200.84375 C 155.890625 -207.21875 149.195312 -227.941406 136.125 -236.226562 C 120.503906 -246.109375 98.1875 -244.199219 81.292969 -239.097656 C 46.542969 -229.214844 20.085938 -200.84375 14.984375 -164.5 C 9.882812 -127.835938 25.824219 -101.695312 58.019531 -86.074219 C 69.816406 -80.335938 90.855469 -69.179688 80.65625 -52.601562 C 68.542969 -32.515625 44.949219 -52.28125 29.328125 -52.28125 C 10.839844 -52.601562 -2.871094 -37.617188 9.246094 -20.085938 C 18.171875 -7.332031 38.894531 -4.464844 53.238281 -1.914062 Z M 53.238281 -1.914062 "/></g></g></g><g fill="#ffbd59" fill-opacity="1"><g transform="translate(638.971912, 362.309787)"><g><path d="M 90.539062 -8.925781 C 107.753906 -25.503906 105.839844 -51.328125 103.289062 -83.84375 C 100.738281 -104.246094 101.378906 -109.347656 112.855469 -125.925781 C 120.1875 -136.765625 127.519531 -147.921875 133.257812 -160.035156 C 139.3125 -173.105469 150.789062 -200.203125 132.300781 -208.8125 C 103.609375 -222.519531 86.710938 -171.832031 75.875 -153.980469 C 66.628906 -174.0625 63.441406 -203.710938 41.445312 -214.550781 C 15.621094 -227.300781 0 -205.304688 6.058594 -181.714844 C 12.433594 -155.574219 36.023438 -134.851562 39.210938 -109.347656 C 42.082031 -83.523438 29.96875 -36.980469 44.949219 -14.027344 C 57.066406 4.144531 82.566406 5.738281 90.539062 -8.925781 Z M 90.539062 -8.925781 "/></g></g></g><g fill="#ffbd59" fill-opacity="1"><g transform="translate(22.631944, 617.434317)"><g><path d="M 69.496094 -0.636719 C 96.59375 -3.507812 125.605469 -12.433594 142.183594 -35.386719 C 159.71875 -59.933594 160.035156 -101.695312 137.402344 -123.375 C 156.527344 -140.269531 174.0625 -170.554688 163.542969 -196.699219 C 151.109375 -228.257812 111.261719 -228.578125 82.886719 -227.621094 C 61.527344 -227.300781 24.546875 -232.082031 11.476562 -211.042969 C 0.957031 -193.507812 5.738281 -167.050781 6.375 -147.601562 C 7.332031 -110.941406 2.871094 -69.179688 11.476562 -33.472656 C 18.171875 -3.824219 42.082031 2.230469 69.496094 -0.636719 Z M 55.789062 -146.328125 C 54.195312 -147.601562 55.152344 -166.410156 55.789062 -167.6875 C 61.207031 -180.121094 110.621094 -173.105469 101.378906 -157.484375 C 96.277344 -148.878906 83.84375 -147.601562 74.917969 -146.644531 C 73.003906 -146.328125 57.703125 -144.734375 55.789062 -146.328125 Z M 53.875 -48.136719 C 54.195312 -57.066406 50.371094 -77.785156 54.195312 -84.800781 C 57.703125 -91.175781 63.441406 -91.496094 73.003906 -91.8125 C 85.4375 -92.132812 103.609375 -88.945312 99.464844 -72.046875 C 95 -53.875 69.179688 -49.730469 53.875 -48.136719 Z M 53.875 -48.136719 "/></g></g></g><g fill="#ffbd59" fill-opacity="1"><g transform="translate(184.570292, 617.434317)"><g><path d="M 52.921875 -0.636719 C 72.6875 -1.59375 92.449219 -1.273438 111.898438 -2.230469 C 128.15625 -3.1875 140.269531 -5.417969 146.644531 -21.359375 C 150.472656 -31.878906 152.703125 -51.007812 142.183594 -58.976562 C 130.386719 -67.585938 111.898438 -63.757812 98.507812 -64.398438 C 86.394531 -65.035156 55.152344 -74.917969 73.324219 -91.8125 C 84.164062 -102.015625 101.058594 -89.902344 113.808594 -93.40625 C 127.835938 -97.550781 131.023438 -113.492188 129.429688 -126.5625 C 128.476562 -137.71875 124.648438 -144.097656 113.808594 -148.242188 C 103.289062 -152.066406 81.292969 -145.050781 73.003906 -151.109375 C 61.847656 -159.078125 72.046875 -174.0625 80.019531 -175.65625 C 92.132812 -178.527344 105.203125 -170.238281 117.953125 -175.339844 C 129.113281 -179.800781 134.851562 -190.320312 133.257812 -202.4375 C 131.023438 -219.332031 117 -222.203125 102.332031 -224.433594 C 80.65625 -227.621094 23.273438 -238.460938 13.707031 -211.679688 C 9.5625 -200.203125 11.796875 -184.265625 11.15625 -172.46875 C 10.519531 -151.109375 9.5625 -129.75 8.609375 -108.390625 C 7.652344 -90.21875 7.011719 -72.046875 6.058594 -53.875 C 5.417969 -39.53125 1.273438 -18.808594 12.75 -7.652344 C 23.273438 2.550781 40.167969 -0.320312 52.921875 -0.636719 Z M 52.921875 -0.636719 "/></g></g></g><g fill="#ffbd59" fill-opacity="1"><g transform="translate(329.613429, 617.434317)"><g><path d="M 123.375 -5.101562 C 144.097656 -16.578125 144.734375 -48.777344 125.285156 -61.847656 C 111.261719 -71.089844 96.59375 -67.902344 80.972656 -70.773438 C 69.179688 -73.003906 71.410156 -67.585938 69.496094 -80.972656 C 68.542969 -87.988281 70.453125 -96.277344 70.773438 -103.289062 C 71.730469 -131.664062 76.511719 -166.730469 67.265625 -194.464844 C 59.933594 -217.101562 36.34375 -225.390625 19.765625 -205.941406 C 4.144531 -187.453125 5.417969 -155.253906 5.417969 -132.9375 C 5.101562 -106.476562 3.824219 -77.785156 6.375 -51.328125 C 9.246094 -21.996094 28.054688 -9.882812 55.789062 -5.417969 C 74.917969 -2.230469 105.523438 4.78125 123.375 -5.101562 Z M 123.375 -5.101562 "/></g></g></g><g fill="#ffbd59" fill-opacity="1"><g transform="translate(464.136913, 617.434317)"><g><path d="M 123.375 -5.101562 C 144.097656 -16.578125 144.734375 -48.777344 125.285156 -61.847656 C 111.261719 -71.089844 96.59375 -67.902344 80.972656 -70.773438 C 69.179688 -73.003906 71.410156 -67.585938 69.496094 -80.972656 C 68.542969 -87.988281 70.453125 -96.277344 70.773438 -103.289062 C 71.730469 -131.664062 76.511719 -166.730469 67.265625 -194.464844 C 59.933594 -217.101562 36.34375 -225.390625 19.765625 -205.941406 C 4.144531 -187.453125 5.417969 -155.253906 5.417969 -132.9375 C 5.101562 -106.476562 3.824219 -77.785156 6.375 -51.328125 C 9.246094 -21.996094 28.054688 -9.882812 55.789062 -5.417969 C 74.917969 -2.230469 105.523438 4.78125 123.375 -5.101562 Z M 123.375 -5.101562 "/></g></g></g><g fill="#ffbd59" fill-opacity="1"><g transform="translate(598.660375, 617.434317)"><g><path d="M 24.546875 -1.914062 C 36.023438 1.59375 50.371094 0.636719 58.019531 -8.925781 C 66.308594 -19.128906 63.757812 -44.3125 73.003906 -51.964844 C 78.105469 -55.789062 122.738281 -52.28125 124.332031 -51.007812 C 132.9375 -43.675781 134.53125 -23.273438 140.90625 -14.027344 C 149.835938 -0.957031 161.628906 -0.320312 174.0625 -10.203125 C 186.496094 -20.402344 185.222656 -30.921875 180.121094 -44.949219 L 142.820312 -149.835938 C 133.894531 -175.339844 127.835938 -214.550781 94.363281 -213.914062 C 64.714844 -212.957031 50.050781 -195.101562 41.445312 -168.960938 C 31.242188 -138.039062 21.679688 -106.796875 14.027344 -75.234375 C 8.289062 -51.644531 -8.289062 -11.476562 24.546875 -1.914062 Z M 87.667969 -97.234375 C 90.539062 -106.796875 93.726562 -116.359375 96.59375 -125.925781 C 99.144531 -117.316406 102.015625 -109.027344 104.882812 -100.421875 C 99.144531 -99.464844 93.40625 -98.1875 87.667969 -97.234375 Z M 87.667969 -97.234375 "/></g></g></g></svg>