<svg xmlns="http://www.w3.org/2000/svg" xmlns:xlink="http://www.w3.org/1999/xlink" width="1080" zoomAndPan="magnify" viewBox="0 0 810 809.999993" height="1080" preserveAspectRatio="xMidYMid meet" version="1.0"><defs><clipPath id="33f85460e4"><path d="M 24 63 L 802 63 L 802 762.09375 L 24 762.09375 Z M 24 63 " clip-rule="nonzero"/></clipPath></defs><g clip-path="url(#33f85460e4)"><path fill="#ffffff" d="M 670.121094 762.046875 C 695.554688 719.007812 671.472656 671.046875 671.472656 671.046875 C 671.472656 671.046875 687.574219 670.082031 700.492188 663.433594 C 716.300781 655.3125 729.15625 639.84375 724.515625 621.886719 C 753.117188 599.878906 751.65625 562.089844 739.1875 552.554688 C 743.226562 531.648438 742.496094 505.226562 712.046875 494.960938 C 736.535156 482.535156 741.457031 453.148438 730.011719 413.886719 C 764.855469 416.449219 784.003906 385.726562 777.636719 350.996094 C 808.441406 343.167969 809.839844 289.039062 775.617188 269.949219 C 778.054688 245.007812 764.125 185.332031 687.109375 189.730469 C 678.304688 124.433594 590.277344 117.085938 590.277344 117.085938 C 580.015625 87.730469 505.183594 59.121094 464.113281 97.28125 C 445.777344 48.125 329.875 56.929688 299.070312 98.742188 C 249.925781 85.542969 182.441406 122.957031 169.972656 153.042969 C 124.492188 143.132812 80.8125 206.425781 86.308594 242.738281 C 26.183594 253.003906 37.535156 324.996094 37.535156 324.996094 C 0.0351562 390.074219 53.808594 422.441406 79.039062 409.832031 C 99.582031 437.710938 126.726562 417.90625 126.726562 417.90625 C 117.441406 456.300781 131.617188 483.203125 146.292969 492.988281 C 117.441406 492.011719 97.875 520.386719 107.660156 534.566406 C 71.480469 554.136719 76.402344 630.445312 117.660156 628.832031 C 112.285156 667.472656 163.402344 679.105469 187.609375 680.582031 C 177.921875 702.125 174.644531 730.503906 201.789062 762.046875 Z M 670.121094 762.046875 " fill-opacity="1" fill-rule="nonzero"/></g><path fill="#773c2c" d="M 375.328125 373.890625 C 375.328125 374.621094 375.289062 375.347656 375.21875 376.074219 C 375.148438 376.800781 375.039062 377.523438 374.898438 378.238281 C 374.753906 378.953125 374.578125 379.660156 374.367188 380.359375 C 374.15625 381.058594 373.910156 381.746094 373.628906 382.417969 C 373.351562 383.09375 373.039062 383.753906 372.695312 384.398438 C 372.351562 385.039062 371.976562 385.664062 371.570312 386.273438 C 371.164062 386.878906 370.730469 387.464844 370.269531 388.03125 C 369.804688 388.59375 369.316406 389.132812 368.800781 389.648438 C 368.285156 390.167969 367.742188 390.65625 367.179688 391.121094 C 366.617188 391.582031 366.03125 392.015625 365.421875 392.421875 C 364.816406 392.828125 364.191406 393.203125 363.546875 393.546875 C 362.902344 393.890625 362.246094 394.203125 361.570312 394.480469 C 360.898438 394.761719 360.210938 395.007812 359.511719 395.21875 C 358.8125 395.429688 358.105469 395.609375 357.390625 395.75 C 356.675781 395.894531 355.953125 396 355.226562 396.070312 C 354.5 396.144531 353.773438 396.179688 353.042969 396.179688 C 352.3125 396.179688 351.585938 396.144531 350.859375 396.070312 C 350.132812 396 349.414062 395.894531 348.695312 395.75 C 347.980469 395.609375 347.273438 395.429688 346.574219 395.21875 C 345.878906 395.007812 345.191406 394.761719 344.515625 394.480469 C 343.84375 394.203125 343.183594 393.890625 342.539062 393.546875 C 341.898438 393.203125 341.269531 392.828125 340.664062 392.421875 C 340.058594 392.015625 339.472656 391.582031 338.910156 391.121094 C 338.34375 390.65625 337.804688 390.167969 337.289062 389.648438 C 336.773438 389.132812 336.28125 388.59375 335.820312 388.03125 C 335.355469 387.464844 334.921875 386.878906 334.515625 386.273438 C 334.113281 385.664062 333.738281 385.039062 333.394531 384.398438 C 333.046875 383.753906 332.738281 383.09375 332.457031 382.417969 C 332.179688 381.746094 331.933594 381.058594 331.722656 380.359375 C 331.507812 379.660156 331.332031 378.953125 331.191406 378.238281 C 331.046875 377.523438 330.941406 376.800781 330.867188 376.074219 C 330.796875 375.347656 330.761719 374.621094 330.761719 373.890625 C 330.761719 373.160156 330.796875 372.433594 330.867188 371.707031 C 330.941406 370.980469 331.046875 370.257812 331.191406 369.542969 C 331.332031 368.824219 331.507812 368.117188 331.722656 367.421875 C 331.933594 366.722656 332.179688 366.035156 332.457031 365.359375 C 332.738281 364.6875 333.046875 364.027344 333.394531 363.382812 C 333.738281 362.738281 334.113281 362.113281 334.515625 361.507812 C 334.921875 360.902344 335.355469 360.316406 335.820312 359.75 C 336.28125 359.1875 336.773438 358.644531 337.289062 358.128906 C 337.804688 357.613281 338.34375 357.125 338.90625 356.660156 C 339.472656 356.199219 340.058594 355.765625 340.664062 355.359375 C 341.269531 354.953125 341.898438 354.578125 342.539062 354.234375 C 343.183594 353.890625 343.84375 353.578125 344.515625 353.296875 C 345.191406 353.019531 345.878906 352.773438 346.574219 352.5625 C 347.273438 352.351562 347.980469 352.171875 348.695312 352.03125 C 349.414062 351.886719 350.132812 351.78125 350.859375 351.710938 C 351.585938 351.636719 352.3125 351.601562 353.042969 351.601562 C 353.773438 351.601562 354.5 351.636719 355.226562 351.710938 C 355.953125 351.78125 356.675781 351.886719 357.390625 352.03125 C 358.105469 352.171875 358.8125 352.351562 359.511719 352.5625 C 360.210938 352.773438 360.898438 353.019531 361.570312 353.296875 C 362.246094 353.578125 362.902344 353.890625 363.546875 354.234375 C 364.191406 354.578125 364.816406 354.953125 365.421875 355.359375 C 366.03125 355.765625 366.617188 356.199219 367.179688 356.660156 C 367.742188 357.125 368.285156 357.613281 368.800781 358.128906 C 369.316406 358.644531 369.804688 359.1875 370.269531 359.75 C 370.730469 360.316406 371.164062 360.902344 371.570312 361.507812 C 371.976562 362.113281 372.351562 362.738281 372.695312 363.382812 C 373.039062 364.027344 373.351562 364.6875 373.628906 365.359375 C 373.910156 366.035156 374.15625 366.722656 374.367188 367.421875 C 374.578125 368.117188 374.753906 368.824219 374.898438 369.542969 C 375.039062 370.257812 375.148438 370.980469 375.21875 371.707031 C 375.289062 372.433594 375.328125 373.160156 375.328125 373.890625 Z M 375.328125 373.890625 " fill-opacity="1" fill-rule="nonzero"/><path fill="#773c2c" d="M 522.109375 373.890625 C 522.109375 374.621094 522.074219 375.347656 522.003906 376.074219 C 521.933594 376.800781 521.824219 377.523438 521.683594 378.238281 C 521.539062 378.953125 521.363281 379.660156 521.152344 380.359375 C 520.9375 381.058594 520.695312 381.746094 520.414062 382.417969 C 520.136719 383.09375 519.824219 383.753906 519.480469 384.398438 C 519.136719 385.039062 518.761719 385.664062 518.355469 386.273438 C 517.949219 386.878906 517.515625 387.464844 517.050781 388.03125 C 516.589844 388.59375 516.101562 389.132812 515.585938 389.648438 C 515.066406 390.167969 514.527344 390.65625 513.964844 391.121094 C 513.398438 391.582031 512.8125 392.015625 512.207031 392.421875 C 511.601562 392.828125 510.976562 393.203125 510.332031 393.546875 C 509.6875 393.890625 509.03125 394.203125 508.355469 394.480469 C 507.679688 394.761719 506.996094 395.007812 506.296875 395.21875 C 505.597656 395.429688 504.890625 395.609375 504.175781 395.75 C 503.460938 395.894531 502.738281 396 502.011719 396.070312 C 501.285156 396.144531 500.558594 396.179688 499.828125 396.179688 C 499.097656 396.179688 498.371094 396.144531 497.644531 396.070312 C 496.917969 396 496.195312 395.894531 495.480469 395.75 C 494.765625 395.609375 494.058594 395.429688 493.359375 395.21875 C 492.660156 395.007812 491.976562 394.761719 491.300781 394.480469 C 490.625 394.203125 489.96875 393.890625 489.324219 393.546875 C 488.679688 393.203125 488.054688 392.828125 487.449219 392.421875 C 486.84375 392.015625 486.257812 391.582031 485.691406 391.121094 C 485.128906 390.65625 484.589844 390.167969 484.070312 389.648438 C 483.554688 389.132812 483.066406 388.59375 482.605469 388.03125 C 482.140625 387.464844 481.707031 386.878906 481.300781 386.273438 C 480.894531 385.664062 480.519531 385.039062 480.175781 384.398438 C 479.832031 383.753906 479.519531 383.09375 479.242188 382.417969 C 478.960938 381.746094 478.71875 381.058594 478.503906 380.359375 C 478.292969 379.660156 478.117188 378.953125 477.972656 378.238281 C 477.832031 377.523438 477.726562 376.800781 477.652344 376.074219 C 477.582031 375.347656 477.546875 374.621094 477.546875 373.890625 C 477.546875 373.160156 477.582031 372.433594 477.652344 371.707031 C 477.726562 370.980469 477.832031 370.257812 477.972656 369.542969 C 478.117188 368.824219 478.292969 368.117188 478.503906 367.421875 C 478.71875 366.722656 478.960938 366.035156 479.242188 365.359375 C 479.519531 364.6875 479.832031 364.027344 480.175781 363.382812 C 480.519531 362.738281 480.894531 362.113281 481.300781 361.507812 C 481.707031 360.902344 482.140625 360.316406 482.605469 359.75 C 483.066406 359.1875 483.554688 358.644531 484.070312 358.128906 C 484.589844 357.613281 485.128906 357.125 485.691406 356.660156 C 486.257812 356.199219 486.84375 355.765625 487.449219 355.359375 C 488.054688 354.953125 488.679688 354.578125 489.324219 354.234375 C 489.96875 353.890625 490.625 353.578125 491.300781 353.296875 C 491.976562 353.019531 492.660156 352.773438 493.359375 352.5625 C 494.058594 352.351562 494.765625 352.171875 495.480469 352.03125 C 496.195312 351.886719 496.917969 351.78125 497.644531 351.710938 C 498.371094 351.636719 499.097656 351.601562 499.828125 351.601562 C 500.558594 351.601562 501.285156 351.636719 502.011719 351.710938 C 502.738281 351.78125 503.460938 351.886719 504.175781 352.03125 C 504.890625 352.171875 505.597656 352.351562 506.296875 352.5625 C 506.996094 352.773438 507.679688 353.019531 508.355469 353.296875 C 509.03125 353.578125 509.6875 353.890625 510.332031 354.234375 C 510.976562 354.578125 511.601562 354.953125 512.207031 355.359375 C 512.8125 355.765625 513.398438 356.199219 513.964844 356.660156 C 514.527344 357.125 515.066406 357.613281 515.585938 358.128906 C 516.101562 358.644531 516.589844 359.1875 517.050781 359.75 C 517.515625 360.316406 517.949219 360.902344 518.355469 361.507812 C 518.761719 362.113281 519.136719 362.738281 519.480469 363.382812 C 519.824219 364.027344 520.136719 364.6875 520.414062 365.359375 C 520.695312 366.035156 520.9375 366.722656 521.152344 367.421875 C 521.363281 368.117188 521.539062 368.824219 521.683594 369.542969 C 521.824219 370.257812 521.933594 370.980469 522.003906 371.707031 C 522.074219 372.433594 522.109375 373.160156 522.109375 373.890625 Z M 522.109375 373.890625 " fill-opacity="1" fill-rule="nonzero"/><path fill="#773c2c" d="M 410.976562 391.921875 C 417.46875 398.414062 431.957031 402.28125 441.800781 391.039062 C 451.660156 379.792969 447.609375 366.265625 428.027344 366.652344 C 408.445312 367.023438 398.355469 379.28125 410.976562 391.921875 Z M 410.976562 391.921875 " fill-opacity="1" fill-rule="nonzero"/><path fill="#773c2c" d="M 404.828125 425.519531 C 393.523438 425.519531 386.628906 416.976562 384.300781 411.507812 C 383.464844 409.550781 384.378906 407.269531 386.351562 406.445312 C 388.308594 405.605469 390.589844 406.523438 391.429688 408.496094 C 391.988281 409.769531 397.375 421.105469 410.542969 416.820312 C 424.628906 412.238281 423.679688 390.460938 423.664062 390.246094 C 423.554688 388.117188 425.203125 386.300781 427.328125 386.191406 C 429.457031 386.003906 431.289062 387.714844 431.382812 389.855469 C 431.445312 390.992188 432.5625 417.785156 412.917969 424.183594 C 410.015625 425.097656 407.328125 425.519531 404.828125 425.519531 Z M 404.828125 425.519531 " fill-opacity="1" fill-rule="nonzero"/><path fill="#773c2c" d="M 449.984375 426 C 449.75 426 449.519531 426 449.285156 426 C 433.355469 425.550781 425.171875 412.519531 423.058594 405.699219 C 422.4375 403.648438 423.570312 401.492188 425.621094 400.867188 C 427.671875 400.21875 429.8125 401.382812 430.449219 403.402344 C 430.636719 403.992188 435.203125 417.859375 449.503906 418.265625 C 460.808594 418.964844 467.671875 406.632812 467.730469 406.507812 C 468.757812 404.644531 471.117188 403.960938 472.980469 404.984375 C 474.859375 406.011719 475.542969 408.371094 474.519531 410.25 C 474.144531 410.871094 465.652344 426 449.984375 426 Z M 449.984375 426 " fill-opacity="1" fill-rule="nonzero"/><path fill="#ffd5d2" d="M 427.640625 610.113281 C 410.417969 610.113281 391.367188 606.527344 373.011719 599.054688 C 345.109375 607.863281 316.011719 600.128906 299.285156 588.355469 C 287.421875 580 280.792969 569.4375 280.589844 558.59375 C 279.628906 549.105469 272.285156 534.085938 260.15625 524.363281 C 254.195312 519.578125 244.582031 514.160156 232.828125 515.601562 C 230.902344 515.835938 229.132812 514.703125 228.496094 512.902344 C 220.980469 491.433594 167.003906 494.136719 146.835938 496.996094 C 144.582031 497.320312 142.550781 495.753906 142.238281 493.53125 C 141.929688 491.3125 143.464844 489.246094 145.703125 488.933594 C 153.527344 487.816406 220.546875 479.195312 234.925781 507.261719 C 245.375 506.734375 255.871094 510.476562 265.25 517.996094 C 277.703125 527.964844 287.347656 544.460938 288.710938 558.097656 C 288.882812 566.609375 294.285156 574.855469 303.976562 581.675781 C 319.300781 592.46875 346.210938 599.492188 371.878906 590.839844 C 372.828125 590.527344 373.835938 590.558594 374.75 590.933594 C 421.972656 610.703125 467.15625 601.820312 478.167969 581.503906 C 479.222656 579.546875 481.660156 578.800781 483.617188 579.84375 C 500.355469 588.585938 515.230469 590.855469 527.902344 586.613281 C 541.832031 581.925781 549.53125 570.445312 552.824219 564.171875 C 546.628906 551.09375 551.894531 531.226562 565.480469 517.714844 C 578.210938 505.058594 594.316406 501.4375 609.90625 507.339844 C 609.066406 497.941406 613.664062 488.902344 623.164062 482.007812 C 645.355469 465.902344 686.71875 465.125 714.871094 491.964844 C 716.503906 493.515625 716.566406 496.078125 715.011719 497.710938 C 713.460938 499.355469 710.898438 499.402344 709.265625 497.851562 C 682.730469 472.546875 644.980469 476.230469 627.949219 488.578125 C 622.449219 492.570312 614.097656 501.066406 619.90625 513.195312 C 620.679688 514.828125 620.292969 516.769531 618.957031 517.980469 C 617.621094 519.175781 615.648438 519.363281 614.113281 518.429688 C 592.996094 505.492188 577.078125 517.652344 571.226562 523.476562 C 559.65625 534.988281 555.03125 552.257812 560.898438 561.996094 C 561.597656 563.160156 561.675781 564.605469 561.101562 565.832031 C 558.027344 572.339844 548.894531 588.136719 530.527344 594.320312 C 516.582031 599.007812 500.699219 597.128906 483.261719 588.742188 C 473.351562 602.722656 452.375 610.113281 427.640625 610.113281 Z M 427.640625 610.113281 " fill-opacity="1" fill-rule="nonzero"/><path fill="#ffd5d2" d="M 126.726562 421.976562 C 126.679688 421.976562 126.648438 421.976562 126.617188 421.976562 C 124.367188 421.914062 122.597656 420.050781 122.65625 417.800781 C 122.71875 415.5 124.445312 363.515625 156.324219 344.070312 C 146.898438 330.742188 146.929688 308.796875 150.484375 291.507812 C 154.597656 271.410156 166.230469 245.332031 185.4375 238.015625 C 187.519531 237.210938 189.878906 238.265625 190.683594 240.363281 C 191.476562 242.460938 190.4375 244.820312 188.339844 245.613281 C 175.066406 250.675781 163.339844 269.328125 158.449219 293.140625 C 154.039062 314.621094 156.820312 333.941406 165.5 342.34375 C 166.460938 343.277344 166.898438 344.613281 166.679688 345.933594 C 166.460938 347.253906 165.609375 348.386719 164.398438 348.945312 C 132.566406 363.855469 130.808594 417.472656 130.792969 418.015625 C 130.734375 420.222656 128.914062 421.976562 126.726562 421.976562 Z M 126.726562 421.976562 " fill-opacity="1" fill-rule="nonzero"/><path fill="#ffd5d2" d="M 730.027344 417.9375 C 729.375 417.9375 728.707031 417.785156 728.085938 417.441406 C 726.113281 416.355469 725.386719 413.886719 726.472656 411.929688 C 739.761719 387.621094 728.832031 349.582031 697.945312 312.664062 C 697.449219 312.058594 697.125 311.328125 697.03125 310.550781 C 692.171875 271.691406 649.902344 239.523438 649.484375 239.199219 C 647.683594 237.847656 647.328125 235.300781 648.675781 233.496094 C 650.027344 231.695312 652.574219 231.339844 654.359375 232.691406 C 656.191406 234.074219 698.988281 266.613281 704.949219 308.347656 C 737.433594 347.609375 748.429688 388.722656 733.613281 415.8125 C 732.871094 417.160156 731.472656 417.9375 730.027344 417.9375 Z M 730.027344 417.9375 " fill-opacity="1" fill-rule="nonzero"/><path fill="#ffd5d2" d="M 328.152344 426.496094 C 328.152344 428.128906 328.074219 429.757812 327.914062 431.386719 C 327.753906 433.011719 327.511719 434.625 327.195312 436.226562 C 326.875 437.828125 326.480469 439.410156 326.007812 440.972656 C 325.53125 442.535156 324.984375 444.074219 324.359375 445.582031 C 323.734375 447.089844 323.035156 448.566406 322.265625 450.007812 C 321.496094 451.445312 320.65625 452.847656 319.75 454.203125 C 318.84375 455.5625 317.871094 456.871094 316.835938 458.136719 C 315.800781 459.398438 314.703125 460.605469 313.550781 461.761719 C 312.394531 462.917969 311.1875 464.011719 309.925781 465.050781 C 308.660156 466.085938 307.351562 467.058594 305.992188 467.964844 C 304.636719 468.871094 303.238281 469.710938 301.796875 470.480469 C 300.355469 471.25 298.882812 471.949219 297.375 472.574219 C 295.863281 473.199219 294.328125 473.746094 292.765625 474.222656 C 291.203125 474.695312 289.621094 475.09375 288.019531 475.410156 C 286.417969 475.730469 284.804688 475.96875 283.179688 476.128906 C 281.554688 476.289062 279.925781 476.371094 278.292969 476.371094 C 276.660156 476.371094 275.03125 476.289062 273.40625 476.128906 C 271.78125 475.96875 270.167969 475.730469 268.566406 475.410156 C 266.964844 475.09375 265.382812 474.695312 263.820312 474.222656 C 262.257812 473.746094 260.722656 473.199219 259.210938 472.574219 C 257.703125 471.949219 256.230469 471.25 254.789062 470.480469 C 253.347656 469.710938 251.949219 468.871094 250.59375 467.964844 C 249.234375 467.058594 247.925781 466.085938 246.664062 465.050781 C 245.398438 464.011719 244.191406 462.917969 243.035156 461.761719 C 241.882812 460.605469 240.785156 459.398438 239.75 458.136719 C 238.714844 456.871094 237.742188 455.5625 236.835938 454.203125 C 235.929688 452.847656 235.089844 451.445312 234.320312 450.007812 C 233.550781 448.566406 232.855469 447.089844 232.230469 445.582031 C 231.605469 444.074219 231.054688 442.535156 230.582031 440.972656 C 230.105469 439.410156 229.710938 437.828125 229.390625 436.226562 C 229.074219 434.625 228.832031 433.011719 228.671875 431.386719 C 228.511719 429.757812 228.433594 428.128906 228.433594 426.496094 C 228.433594 424.863281 228.511719 423.234375 228.671875 421.609375 C 228.832031 419.984375 229.074219 418.367188 229.390625 416.765625 C 229.710938 415.164062 230.105469 413.582031 230.582031 412.019531 C 231.054688 410.457031 231.605469 408.921875 232.230469 407.410156 C 232.855469 405.902344 233.550781 404.425781 234.320312 402.988281 C 235.089844 401.546875 235.929688 400.148438 236.835938 398.789062 C 237.742188 397.429688 238.714844 396.121094 239.75 394.859375 C 240.785156 393.59375 241.882812 392.386719 243.035156 391.230469 C 244.191406 390.078125 245.398438 388.980469 246.664062 387.945312 C 247.925781 386.910156 249.234375 385.9375 250.59375 385.027344 C 251.949219 384.121094 253.347656 383.28125 254.789062 382.511719 C 256.230469 381.742188 257.703125 381.046875 259.210938 380.421875 C 260.722656 379.796875 262.257812 379.246094 263.820312 378.769531 C 265.382812 378.296875 266.964844 377.902344 268.566406 377.582031 C 270.167969 377.261719 271.78125 377.023438 273.40625 376.863281 C 275.03125 376.703125 276.660156 376.625 278.292969 376.625 C 279.925781 376.625 281.554688 376.703125 283.179688 376.863281 C 284.804688 377.023438 286.417969 377.261719 288.019531 377.582031 C 289.621094 377.902344 291.203125 378.296875 292.765625 378.769531 C 294.328125 379.246094 295.863281 379.796875 297.375 380.421875 C 298.882812 381.046875 300.355469 381.742188 301.796875 382.511719 C 303.238281 383.28125 304.636719 384.121094 305.992188 385.027344 C 307.351562 385.9375 308.660156 386.910156 309.925781 387.945312 C 311.1875 388.980469 312.394531 390.078125 313.550781 391.230469 C 314.703125 392.386719 315.800781 393.59375 316.835938 394.859375 C 317.871094 396.121094 318.84375 397.429688 319.75 398.789062 C 320.65625 400.148438 321.496094 401.546875 322.265625 402.988281 C 323.035156 404.425781 323.734375 405.902344 324.359375 407.410156 C 324.984375 408.921875 325.53125 410.457031 326.007812 412.019531 C 326.480469 413.582031 326.875 415.164062 327.195312 416.765625 C 327.511719 418.367188 327.753906 419.984375 327.914062 421.609375 C 328.074219 423.234375 328.152344 424.863281 328.152344 426.496094 Z M 328.152344 426.496094 " fill-opacity="1" fill-rule="nonzero"/><path fill="#ffd5d2" d="M 617.203125 426.496094 C 617.203125 428.128906 617.121094 429.757812 616.960938 431.386719 C 616.800781 433.011719 616.5625 434.625 616.246094 436.226562 C 615.925781 437.828125 615.53125 439.410156 615.054688 440.972656 C 614.582031 442.535156 614.03125 444.074219 613.40625 445.582031 C 612.78125 447.089844 612.085938 448.566406 611.316406 450.007812 C 610.546875 451.445312 609.707031 452.847656 608.800781 454.203125 C 607.890625 455.5625 606.921875 456.871094 605.886719 458.136719 C 604.847656 459.398438 603.753906 460.605469 602.597656 461.761719 C 601.445312 462.917969 600.234375 464.011719 598.972656 465.050781 C 597.710938 466.085938 596.402344 467.058594 595.042969 467.964844 C 593.6875 468.871094 592.285156 469.710938 590.847656 470.480469 C 589.40625 471.25 587.933594 471.949219 586.421875 472.574219 C 584.914062 473.199219 583.378906 473.746094 581.816406 474.222656 C 580.253906 474.695312 578.671875 475.09375 577.070312 475.410156 C 575.46875 475.730469 573.855469 475.96875 572.230469 476.128906 C 570.605469 476.289062 568.976562 476.371094 567.34375 476.371094 C 565.710938 476.371094 564.082031 476.289062 562.457031 476.128906 C 560.832031 475.96875 559.21875 475.730469 557.617188 475.410156 C 556.015625 475.09375 554.433594 474.695312 552.871094 474.222656 C 551.308594 473.746094 549.769531 473.199219 548.261719 472.574219 C 546.753906 471.949219 545.28125 471.25 543.839844 470.480469 C 542.398438 469.710938 541 468.871094 539.640625 467.964844 C 538.285156 467.058594 536.976562 466.085938 535.710938 465.050781 C 534.449219 464.011719 533.242188 462.917969 532.085938 461.761719 C 530.933594 460.605469 529.835938 459.398438 528.800781 458.136719 C 527.765625 456.871094 526.792969 455.5625 525.886719 454.203125 C 524.980469 452.847656 524.140625 451.445312 523.371094 450.007812 C 522.601562 448.566406 521.902344 447.089844 521.277344 445.582031 C 520.652344 444.074219 520.105469 442.535156 519.628906 440.972656 C 519.15625 439.410156 518.761719 437.828125 518.441406 436.226562 C 518.121094 434.625 517.882812 433.011719 517.722656 431.386719 C 517.5625 429.757812 517.484375 428.128906 517.484375 426.496094 C 517.484375 424.863281 517.5625 423.234375 517.722656 421.609375 C 517.882812 419.984375 518.121094 418.367188 518.441406 416.765625 C 518.761719 415.164062 519.15625 413.582031 519.628906 412.019531 C 520.105469 410.457031 520.652344 408.921875 521.277344 407.410156 C 521.902344 405.902344 522.601562 404.425781 523.371094 402.988281 C 524.140625 401.546875 524.980469 400.148438 525.886719 398.789062 C 526.792969 397.429688 527.765625 396.121094 528.800781 394.859375 C 529.835938 393.59375 530.933594 392.386719 532.085938 391.230469 C 533.242188 390.078125 534.449219 388.980469 535.710938 387.945312 C 536.976562 386.910156 538.285156 385.9375 539.640625 385.027344 C 541 384.121094 542.398438 383.28125 543.839844 382.511719 C 545.28125 381.742188 546.753906 381.046875 548.261719 380.421875 C 549.769531 379.796875 551.308594 379.246094 552.871094 378.769531 C 554.433594 378.296875 556.015625 377.902344 557.617188 377.582031 C 559.21875 377.261719 560.832031 377.023438 562.457031 376.863281 C 564.082031 376.703125 565.710938 376.625 567.34375 376.625 C 568.976562 376.625 570.605469 376.703125 572.230469 376.863281 C 573.855469 377.023438 575.46875 377.261719 577.070312 377.582031 C 578.671875 377.902344 580.253906 378.296875 581.816406 378.769531 C 583.378906 379.246094 584.914062 379.796875 586.421875 380.421875 C 587.933594 381.046875 589.40625 381.742188 590.847656 382.511719 C 592.285156 383.28125 593.6875 384.121094 595.042969 385.027344 C 596.402344 385.9375 597.710938 386.910156 598.972656 387.945312 C 600.234375 388.980469 601.445312 390.078125 602.597656 391.230469 C 603.753906 392.386719 604.847656 393.59375 605.886719 394.859375 C 606.921875 396.121094 607.890625 397.429688 608.800781 398.789062 C 609.707031 400.148438 610.546875 401.546875 611.316406 402.988281 C 612.085938 404.425781 612.78125 405.902344 613.40625 407.410156 C 614.03125 408.921875 614.582031 410.457031 615.054688 412.019531 C 615.53125 413.582031 615.925781 415.164062 616.246094 416.765625 C 616.5625 418.367188 616.800781 419.984375 616.960938 421.609375 C 617.121094 423.234375 617.203125 424.863281 617.203125 426.496094 Z M 617.203125 426.496094 " fill-opacity="1" fill-rule="nonzero"/><path fill="#ffd5d2" d="M 162.191406 575.570312 C 157.6875 589.085938 177.828125 630.554688 196.539062 601.632812 C 215.25 572.730469 212.175781 553.996094 192.75 556.375 C 173.046875 558.78125 166.230469 563.488281 162.191406 575.570312 Z M 162.191406 575.570312 " fill-opacity="1" fill-rule="nonzero"/><path fill="#ffd5d2" d="M 180.078125 532.96875 C 180.078125 533.695312 180.007812 534.414062 179.867188 535.128906 C 179.726562 535.839844 179.515625 536.535156 179.238281 537.207031 C 178.960938 537.878906 178.617188 538.515625 178.214844 539.121094 C 177.808594 539.726562 177.351562 540.285156 176.835938 540.796875 C 176.324219 541.3125 175.765625 541.769531 175.160156 542.175781 C 174.554688 542.578125 173.917969 542.921875 173.246094 543.199219 C 172.574219 543.476562 171.882812 543.6875 171.167969 543.828125 C 170.457031 543.972656 169.734375 544.042969 169.007812 544.042969 C 168.28125 544.042969 167.5625 543.972656 166.847656 543.828125 C 166.136719 543.6875 165.445312 543.476562 164.773438 543.199219 C 164.101562 542.921875 163.460938 542.578125 162.859375 542.175781 C 162.253906 541.769531 161.695312 541.3125 161.179688 540.796875 C 160.664062 540.285156 160.207031 539.726562 159.804688 539.121094 C 159.398438 538.515625 159.058594 537.878906 158.78125 537.207031 C 158.5 536.535156 158.292969 535.839844 158.148438 535.128906 C 158.007812 534.414062 157.9375 533.695312 157.9375 532.96875 C 157.9375 532.242188 158.007812 531.519531 158.148438 530.808594 C 158.292969 530.09375 158.5 529.402344 158.78125 528.730469 C 159.058594 528.058594 159.398438 527.417969 159.804688 526.816406 C 160.207031 526.210938 160.667969 525.652344 161.179688 525.136719 C 161.695312 524.621094 162.253906 524.164062 162.859375 523.757812 C 163.460938 523.355469 164.101562 523.015625 164.773438 522.734375 C 165.445312 522.457031 166.136719 522.246094 166.847656 522.105469 C 167.5625 521.964844 168.28125 521.894531 169.007812 521.894531 C 169.734375 521.894531 170.457031 521.964844 171.167969 522.105469 C 171.882812 522.246094 172.574219 522.457031 173.246094 522.738281 C 173.917969 523.015625 174.554688 523.355469 175.160156 523.757812 C 175.765625 524.164062 176.324219 524.621094 176.835938 525.136719 C 177.351562 525.652344 177.808594 526.210938 178.214844 526.816406 C 178.617188 527.417969 178.960938 528.058594 179.238281 528.730469 C 179.515625 529.402344 179.726562 530.09375 179.867188 530.808594 C 180.007812 531.519531 180.078125 532.242188 180.078125 532.96875 Z M 180.078125 532.96875 " fill-opacity="1" fill-rule="nonzero"/><path fill="#ffd5d2" d="M 147.734375 570.058594 C 147.734375 570.785156 147.664062 571.503906 147.523438 572.21875 C 147.382812 572.929688 147.171875 573.625 146.894531 574.296875 C 146.613281 574.96875 146.273438 575.605469 145.871094 576.210938 C 145.464844 576.816406 145.007812 577.375 144.492188 577.886719 C 143.980469 578.402344 143.417969 578.863281 142.816406 579.265625 C 142.210938 579.667969 141.574219 580.011719 140.902344 580.289062 C 140.230469 580.566406 139.539062 580.777344 138.824219 580.917969 C 138.109375 581.0625 137.390625 581.132812 136.664062 581.132812 C 135.9375 581.132812 135.21875 581.0625 134.503906 580.917969 C 133.792969 580.777344 133.097656 580.566406 132.425781 580.289062 C 131.753906 580.011719 131.117188 579.667969 130.511719 579.265625 C 129.910156 578.863281 129.351562 578.402344 128.835938 577.886719 C 128.320312 577.375 127.863281 576.816406 127.457031 576.210938 C 127.054688 575.605469 126.714844 574.96875 126.4375 574.296875 C 126.15625 573.625 125.949219 572.929688 125.804688 572.21875 C 125.664062 571.503906 125.59375 570.785156 125.59375 570.058594 C 125.59375 569.332031 125.664062 568.609375 125.804688 567.898438 C 125.949219 567.183594 126.15625 566.492188 126.4375 565.820312 C 126.714844 565.148438 127.054688 564.511719 127.457031 563.90625 C 127.863281 563.300781 128.320312 562.742188 128.835938 562.226562 C 129.351562 561.710938 129.910156 561.253906 130.511719 560.851562 C 131.117188 560.445312 131.753906 560.105469 132.425781 559.828125 C 133.097656 559.546875 133.792969 559.339844 134.503906 559.195312 C 135.21875 559.054688 135.9375 558.984375 136.664062 558.984375 C 137.390625 558.984375 138.109375 559.054688 138.824219 559.195312 C 139.539062 559.339844 140.230469 559.546875 140.902344 559.828125 C 141.574219 560.105469 142.210938 560.445312 142.816406 560.851562 C 143.417969 561.253906 143.980469 561.710938 144.492188 562.226562 C 145.007812 562.742188 145.464844 563.300781 145.871094 563.90625 C 146.273438 564.511719 146.613281 565.148438 146.894531 565.820312 C 147.171875 566.492188 147.382812 567.183594 147.523438 567.898438 C 147.664062 568.609375 147.734375 569.332031 147.734375 570.058594 Z M 147.734375 570.058594 " fill-opacity="1" fill-rule="nonzero"/><path fill="#ffd5d2" d="M 153.667969 615.921875 C 153.667969 616.652344 153.597656 617.371094 153.453125 618.082031 C 153.3125 618.796875 153.101562 619.488281 152.824219 620.160156 C 152.546875 620.832031 152.207031 621.472656 151.800781 622.074219 C 151.398438 622.679688 150.9375 623.238281 150.425781 623.753906 C 149.910156 624.269531 149.351562 624.726562 148.746094 625.132812 C 148.140625 625.535156 147.503906 625.875 146.832031 626.15625 C 146.160156 626.433594 145.46875 626.644531 144.753906 626.785156 C 144.042969 626.925781 143.324219 626.996094 142.597656 626.996094 C 141.867188 626.996094 141.148438 626.925781 140.4375 626.785156 C 139.722656 626.644531 139.03125 626.433594 138.359375 626.15625 C 137.6875 625.875 137.050781 625.535156 136.445312 625.132812 C 135.839844 624.726562 135.28125 624.269531 134.765625 623.753906 C 134.253906 623.238281 133.792969 622.679688 133.390625 622.074219 C 132.988281 621.472656 132.644531 620.832031 132.367188 620.160156 C 132.089844 619.488281 131.878906 618.796875 131.738281 618.082031 C 131.59375 617.371094 131.523438 616.652344 131.523438 615.921875 C 131.523438 615.195312 131.59375 614.476562 131.738281 613.761719 C 131.878906 613.050781 132.089844 612.355469 132.367188 611.683594 C 132.644531 611.011719 132.988281 610.375 133.390625 609.769531 C 133.792969 609.167969 134.253906 608.605469 134.765625 608.09375 C 135.28125 607.578125 135.839844 607.121094 136.445312 606.714844 C 137.050781 606.3125 137.6875 605.96875 138.359375 605.691406 C 139.03125 605.414062 139.722656 605.203125 140.4375 605.0625 C 141.148438 604.921875 141.867188 604.847656 142.597656 604.847656 C 143.324219 604.847656 144.042969 604.921875 144.753906 605.0625 C 145.46875 605.203125 146.160156 605.414062 146.832031 605.691406 C 147.503906 605.96875 148.140625 606.3125 148.746094 606.714844 C 149.351562 607.121094 149.910156 607.578125 150.425781 608.09375 C 150.9375 608.605469 151.398438 609.167969 151.800781 609.769531 C 152.207031 610.375 152.546875 611.011719 152.824219 611.683594 C 153.101562 612.355469 153.3125 613.050781 153.453125 613.761719 C 153.597656 614.476562 153.667969 615.195312 153.667969 615.921875 Z M 153.667969 615.921875 " fill-opacity="1" fill-rule="nonzero"/><path fill="#ffd5d2" d="M 680.449219 566.96875 C 684.949219 580.480469 664.8125 621.949219 646.101562 593.03125 C 627.390625 564.125 630.464844 545.394531 649.890625 547.769531 C 669.59375 550.175781 676.410156 554.882812 680.449219 566.96875 Z M 680.449219 566.96875 " fill-opacity="1" fill-rule="nonzero"/><path fill="#ffd5d2" d="M 684.703125 524.378906 C 684.703125 525.105469 684.632812 525.824219 684.488281 526.539062 C 684.347656 527.253906 684.136719 527.945312 683.859375 528.617188 C 683.582031 529.289062 683.238281 529.925781 682.835938 530.53125 C 682.433594 531.136719 681.972656 531.695312 681.460938 532.210938 C 680.945312 532.722656 680.386719 533.183594 679.78125 533.585938 C 679.175781 533.992188 678.539062 534.332031 677.867188 534.609375 C 677.195312 534.886719 676.503906 535.097656 675.789062 535.238281 C 675.078125 535.382812 674.359375 535.453125 673.628906 535.453125 C 672.902344 535.453125 672.183594 535.382812 671.472656 535.238281 C 670.757812 535.097656 670.066406 534.886719 669.394531 534.609375 C 668.722656 534.332031 668.085938 533.992188 667.480469 533.585938 C 666.875 533.183594 666.316406 532.722656 665.800781 532.210938 C 665.289062 531.695312 664.828125 531.136719 664.425781 530.53125 C 664.019531 529.925781 663.679688 529.289062 663.402344 528.617188 C 663.125 527.945312 662.914062 527.253906 662.773438 526.539062 C 662.628906 525.824219 662.558594 525.105469 662.558594 524.378906 C 662.558594 523.652344 662.628906 522.929688 662.773438 522.21875 C 662.914062 521.503906 663.125 520.8125 663.402344 520.140625 C 663.679688 519.46875 664.019531 518.832031 664.425781 518.226562 C 664.828125 517.621094 665.289062 517.0625 665.800781 516.546875 C 666.316406 516.035156 666.875 515.574219 667.480469 515.171875 C 668.085938 514.765625 668.722656 514.425781 669.394531 514.148438 C 670.066406 513.867188 670.757812 513.660156 671.472656 513.515625 C 672.183594 513.375 672.902344 513.304688 673.628906 513.304688 C 674.359375 513.304688 675.078125 513.375 675.789062 513.515625 C 676.503906 513.660156 677.195312 513.867188 677.867188 514.148438 C 678.539062 514.425781 679.175781 514.765625 679.78125 515.171875 C 680.386719 515.574219 680.945312 516.035156 681.460938 516.546875 C 681.972656 517.0625 682.433594 517.621094 682.835938 518.226562 C 683.238281 518.832031 683.582031 519.46875 683.859375 520.140625 C 684.136719 520.8125 684.347656 521.503906 684.488281 522.21875 C 684.632812 522.929688 684.703125 523.652344 684.703125 524.378906 Z M 684.703125 524.378906 " fill-opacity="1" fill-rule="nonzero"/><path fill="#ffd5d2" d="M 717.046875 561.46875 C 717.046875 562.195312 716.976562 562.914062 716.832031 563.628906 C 716.691406 564.34375 716.480469 565.035156 716.203125 565.707031 C 715.925781 566.378906 715.585938 567.015625 715.179688 567.621094 C 714.777344 568.226562 714.316406 568.785156 713.804688 569.300781 C 713.289062 569.8125 712.730469 570.273438 712.125 570.675781 C 711.519531 571.082031 710.882812 571.421875 710.210938 571.699219 C 709.539062 571.976562 708.847656 572.1875 708.136719 572.328125 C 707.421875 572.472656 706.703125 572.542969 705.976562 572.542969 C 705.25 572.542969 704.527344 572.472656 703.816406 572.328125 C 703.101562 572.1875 702.410156 571.976562 701.738281 571.699219 C 701.066406 571.421875 700.429688 571.082031 699.824219 570.675781 C 699.21875 570.273438 698.660156 569.8125 698.144531 569.300781 C 697.632812 568.785156 697.171875 568.226562 696.769531 567.621094 C 696.367188 567.015625 696.023438 566.378906 695.746094 565.707031 C 695.46875 565.035156 695.257812 564.34375 695.117188 563.628906 C 694.976562 562.914062 694.902344 562.195312 694.902344 561.46875 C 694.902344 560.742188 694.976562 560.019531 695.117188 559.308594 C 695.257812 558.59375 695.46875 557.902344 695.746094 557.230469 C 696.023438 556.558594 696.367188 555.921875 696.769531 555.316406 C 697.171875 554.710938 697.632812 554.152344 698.144531 553.636719 C 698.660156 553.125 699.21875 552.664062 699.824219 552.261719 C 700.429688 551.855469 701.066406 551.515625 701.738281 551.238281 C 702.410156 550.960938 703.101562 550.75 703.816406 550.605469 C 704.527344 550.464844 705.25 550.394531 705.976562 550.394531 C 706.703125 550.394531 707.421875 550.464844 708.136719 550.605469 C 708.847656 550.75 709.539062 550.960938 710.210938 551.238281 C 710.882812 551.515625 711.519531 551.855469 712.125 552.261719 C 712.730469 552.664062 713.289062 553.125 713.804688 553.636719 C 714.316406 554.152344 714.777344 554.710938 715.179688 555.316406 C 715.585938 555.921875 715.925781 556.558594 716.203125 557.230469 C 716.480469 557.902344 716.691406 558.59375 716.832031 559.308594 C 716.976562 560.019531 717.046875 560.742188 717.046875 561.46875 Z M 717.046875 561.46875 " fill-opacity="1" fill-rule="nonzero"/><path fill="#ffd5d2" d="M 711.113281 607.320312 C 711.113281 608.046875 711.042969 608.765625 710.902344 609.480469 C 710.761719 610.191406 710.550781 610.886719 710.273438 611.554688 C 709.992188 612.226562 709.652344 612.867188 709.25 613.472656 C 708.84375 614.074219 708.386719 614.636719 707.871094 615.148438 C 707.359375 615.664062 706.796875 616.121094 706.195312 616.527344 C 705.589844 616.929688 704.953125 617.273438 704.28125 617.550781 C 703.609375 617.828125 702.917969 618.039062 702.203125 618.179688 C 701.492188 618.320312 700.769531 618.394531 700.042969 618.394531 C 699.316406 618.394531 698.597656 618.320312 697.882812 618.179688 C 697.171875 618.039062 696.476562 617.828125 695.804688 617.550781 C 695.136719 617.273438 694.496094 616.929688 693.890625 616.527344 C 693.289062 616.121094 692.730469 615.664062 692.214844 615.148438 C 691.699219 614.636719 691.242188 614.074219 690.839844 613.472656 C 690.433594 612.867188 690.09375 612.226562 689.816406 611.554688 C 689.535156 610.886719 689.328125 610.191406 689.183594 609.480469 C 689.042969 608.765625 688.972656 608.046875 688.972656 607.320312 C 688.972656 606.589844 689.042969 605.871094 689.183594 605.160156 C 689.328125 604.445312 689.535156 603.753906 689.816406 603.082031 C 690.09375 602.410156 690.433594 601.769531 690.835938 601.167969 C 691.242188 600.5625 691.699219 600.003906 692.214844 599.488281 C 692.730469 598.972656 693.289062 598.515625 693.890625 598.109375 C 694.496094 597.707031 695.136719 597.367188 695.804688 597.085938 C 696.476562 596.808594 697.171875 596.597656 697.882812 596.457031 C 698.597656 596.316406 699.316406 596.246094 700.042969 596.246094 C 700.769531 596.246094 701.492188 596.316406 702.203125 596.457031 C 702.917969 596.597656 703.609375 596.808594 704.28125 597.085938 C 704.953125 597.367188 705.589844 597.707031 706.195312 598.109375 C 706.796875 598.515625 707.359375 598.972656 707.871094 599.488281 C 708.386719 600.003906 708.84375 600.5625 709.25 601.167969 C 709.652344 601.769531 709.992188 602.410156 710.273438 603.082031 C 710.550781 603.753906 710.761719 604.445312 710.902344 605.160156 C 711.042969 605.871094 711.113281 606.589844 711.113281 607.320312 Z M 711.113281 607.320312 " fill-opacity="1" fill-rule="nonzero"/></svg>