<svg xmlns="http://www.w3.org/2000/svg" xmlns:xlink="http://www.w3.org/1999/xlink" width="1080" zoomAndPan="magnify" viewBox="0 0 810 809.999993" height="1080" preserveAspectRatio="xMidYMid meet" version="1.0"><path fill="#fda2b1" d="M 193.683594 181.257812 C 214.652344 176.050781 286.113281 284.328125 286.113281 284.328125 C 286.113281 284.328125 405.457031 261.382812 417.304688 281.257812 C 429.117188 301.195312 357.066406 403.648438 357.066406 403.648438 C 357.066406 403.648438 418.332031 518.570312 404.609375 536.101562 C 390.9375 553.617188 274.957031 508.65625 274.957031 508.65625 C 274.957031 508.65625 193.46875 602.648438 173.191406 593.558594 C 152.917969 584.46875 153.277344 454.246094 153.277344 454.246094 C 153.277344 454.246094 41.675781 397.386719 42.839844 374.230469 C 43.972656 351.132812 160.191406 315.589844 160.191406 315.589844 C 160.191406 315.589844 172.710938 186.464844 193.683594 181.257812 Z M 193.683594 181.257812 " fill-opacity="1" fill-rule="evenodd"/><path fill="#fec556" d="M 646.148438 313.945312 C 663.886719 318.742188 673.636719 423.640625 673.636719 423.640625 C 673.636719 423.640625 771.890625 455.644531 772.734375 474.382812 C 773.527344 493.15625 678.566406 536.097656 678.566406 536.097656 C 678.566406 536.097656 678.039062 641.558594 660.753906 648.34375 C 643.507812 655.140625 575.078125 576.777344 575.078125 576.777344 C 575.078125 576.777344 476.484375 609.964844 465.015625 595.402344 C 453.546875 580.839844 506.195312 489.480469 506.195312 489.480469 C 506.195312 489.480469 445.820312 404.527344 456.003906 388.722656 C 466.136719 372.949219 567.128906 394.835938 567.128906 394.835938 C 567.128906 394.835938 628.410156 309.148438 646.148438 313.945312 Z M 646.148438 313.945312 " fill-opacity="1" fill-rule="evenodd"/><path fill="#ffffff" d="M 367.785156 315.109375 C 366.980469 316.992188 357.171875 339.832031 344.898438 349.820312 C 340.824219 353.136719 340.199219 359.136719 343.511719 363.214844 C 346.824219 367.335938 352.828125 367.917969 356.945312 364.601562 C 369.847656 354.121094 379.699219 337.550781 384.042969 326.753906 C 386.730469 320.035156 387.132812 314.660156 386.640625 312.46875 C 385.476562 307.316406 380.371094 304.046875 375.21875 305.210938 C 370.609375 306.242188 367.519531 310.496094 367.785156 315.109375 Z M 367.785156 315.109375 " fill-opacity="1" fill-rule="evenodd"/><path fill="#ffffff" d="M 623.140625 348.710938 C 612.691406 356.003906 598.773438 371.769531 593.339844 384.359375 C 591.269531 389.230469 593.484375 394.824219 598.355469 396.894531 C 603.171875 399 608.773438 396.742188 610.878906 391.921875 C 615.078125 382.101562 625.957031 370.03125 634.101562 364.367188 C 638.402344 361.339844 639.449219 355.382812 636.421875 351.078125 C 633.445312 346.734375 627.488281 345.691406 623.140625 348.710938 Z M 623.140625 348.710938 " fill-opacity="1" fill-rule="evenodd"/><path fill="#ffffff" d="M 596.449219 409.125 C 596.496094 409.082031 596.496094 408.992188 596.496094 408.949219 C 597.300781 404.511719 594.34375 400.257812 589.867188 399.453125 C 585.433594 398.644531 581.179688 401.601562 580.371094 406.035156 C 580.371094 406.125 580.328125 406.171875 580.328125 406.214844 C 579.519531 410.695312 582.519531 414.949219 586.957031 415.753906 C 591.386719 416.5625 595.6875 413.605469 596.449219 409.125 Z M 596.449219 409.125 " fill-opacity="1" fill-rule="evenodd"/><path fill="#ffffff" d="M 337.457031 380.417969 C 340.90625 377.730469 341.621094 372.757812 339.070312 369.175781 C 336.425781 365.503906 331.277344 364.652344 327.605469 367.292969 C 326.796875 367.875 326.125 368.546875 325.410156 369.265625 C 322.230469 372.445312 322.230469 377.640625 325.410156 380.867188 C 328.632812 384.046875 333.832031 384.046875 337.011719 380.867188 Z M 337.457031 380.417969 " fill-opacity="1" fill-rule="evenodd"/><path fill="#ffffff" d="M 106.628906 370.792969 C 111.464844 371.015625 115.808594 367.566406 116.523438 362.640625 C 117.332031 357.445312 113.703125 352.5625 108.507812 351.800781 C 108.597656 351.847656 108.777344 351.890625 108.777344 351.890625 C 108.777344 351.890625 103.492188 351.308594 101.519531 352.160156 C 100.625 352.519531 99.417969 353.144531 97.804688 354.710938 C 94.089844 358.429688 94.089844 364.476562 97.804688 368.195312 C 100.222656 370.566406 103.539062 371.464844 106.628906 370.792969 Z M 111.015625 368.507812 C 111.105469 368.417969 111.195312 368.328125 111.328125 368.195312 Z M 111.015625 368.507812 " fill-opacity="1" fill-rule="evenodd"/><path fill="#ffffff" d="M 622.441406 586.605469 C 626.878906 584.660156 629.242188 579.644531 627.699219 574.910156 C 626.121094 569.894531 620.703125 567.125 615.710938 568.746094 C 615.808594 568.746094 615.992188 568.707031 615.992188 568.707031 C 615.992188 568.707031 610.996094 570.53125 609.605469 572.167969 C 608.964844 572.882812 608.15625 573.980469 607.40625 576.101562 C 605.722656 581.082031 608.402344 586.503906 613.382812 588.1875 C 616.601562 589.242188 619.96875 588.574219 622.441406 586.605469 Z M 625.363281 582.609375 C 625.40625 582.492188 625.445312 582.371094 625.503906 582.191406 Z M 625.363281 582.609375 " fill-opacity="1" fill-rule="evenodd"/><path fill="#ffffff" d="M 109.71875 387.632812 C 108.730469 387.632812 108.957031 387.632812 108.148438 387.632812 C 102.867188 387.632812 98.609375 391.933594 98.609375 397.171875 C 98.609375 402.457031 102.867188 406.710938 108.148438 406.710938 C 109.179688 406.710938 108.957031 406.710938 110.164062 406.710938 C 115.449219 406.578125 119.613281 402.1875 119.480469 396.902344 C 119.34375 391.664062 114.957031 387.5 109.71875 387.632812 Z M 109.71875 387.632812 " fill-opacity="1" fill-rule="evenodd"/><path fill="#ffffff" d="M 632.675781 600.328125 C 631.792969 600.765625 631.996094 600.667969 631.273438 601.023438 C 626.535156 603.367188 624.628906 609.109375 626.949219 613.804688 C 629.292969 618.542969 634.992188 620.46875 639.730469 618.128906 C 640.652344 617.671875 640.453125 617.769531 641.535156 617.234375 C 646.214844 614.769531 648 608.988281 645.539062 604.3125 C 643.09375 599.671875 637.3125 597.886719 632.675781 600.328125 Z M 632.675781 600.328125 " fill-opacity="1" fill-rule="evenodd"/><path fill="#ffffff" d="M 134.929688 383.734375 C 140.082031 384.988281 145.234375 381.808594 146.484375 376.703125 C 147.695312 371.597656 144.558594 366.402344 139.453125 365.195312 C 137.304688 364.65625 137.796875 364.699219 135.691406 364.699219 C 130.453125 364.699219 126.152344 368.957031 126.152344 374.242188 C 126.152344 379.210938 130.003906 383.332031 134.929688 383.734375 Z M 134.75 383.691406 L 134.078125 383.511719 C 134.078125 383.511719 134.304688 383.601562 134.75 383.691406 Z M 134.75 383.691406 " fill-opacity="1" fill-rule="evenodd"/><path fill="#ffffff" d="M 653.550781 585.65625 C 658.722656 584.5 661.929688 579.363281 660.789062 574.230469 C 659.613281 569.117188 654.496094 565.851562 649.386719 567.03125 C 647.222656 567.503906 647.683594 567.324219 645.792969 568.257812 C 641.097656 570.582031 639.128906 576.300781 641.472656 581.039062 C 643.675781 585.496094 648.957031 587.480469 653.550781 585.65625 Z M 653.371094 585.699219 L 652.6875 585.835938 C 652.6875 585.835938 652.929688 585.816406 653.371094 585.699219 Z M 653.371094 585.699219 " fill-opacity="1" fill-rule="evenodd"/></svg>